{"accessors" : [{"bufferView" : 0, "byteOffset" : 0, "componentType" : 5123, "count" : 30612, "type" : "SCALAR", "max" : [25911], "min" : [0]}, {"bufferView" : 1, "byteOffset" : 0, "componentType" : 5126, "count" : 25912, "type" : "VEC3", "max" : [62.44599914550781, 75.8290023803711, 50.54100036621094], "min" : [-54.571998596191406, -41.111000061035156, -4.1352624940987773E-16]}, {"bufferView" : 1, "byteOffset" : 12, "componentType" : 5126, "count" : 25912, "type" : "VEC3", "max" : [0.9636788964271545, 0.9629671573638916, 0.9738757610321045], "min" : [-0.9627029299736023, -0.9637624621391296, -0.9724624156951904]}], "asset" : {"generator" : "Aspose.3D 21.1", "version" : "2.0"}, "buffers" : [{"uri" : "buffer.bin", "byteLength" : 795920}], "bufferViews" : [{"buffer" : 0, "byteOffset" : 0, "byteLength" : 61224, "target" : 34963}, {"buffer" : 0, "byteOffset" : 61228, "byteLength" : 734688, "byteStride" : 24, "target" : 34962}], "meshes" : [{"primitives" : [{"attributes" : {"POSITION" : 1, "NORMAL" : 2}, "indices" : 0, "mode" : 4}]}], "nodes" : [{"mesh" : 0, "name" : ""}], "scene" : 0, "scenes" : [{"nodes" : [0]}]}